<svg width="158" height="45" viewBox="0 0 158 45" fill="none" xmlns="http://www.w3.org/2000/svg">
<g clip-path="url(#clip0_12_226)">
<mask id="mask0_12_226" style="mask-type:luminance" maskUnits="userSpaceOnUse" x="0" y="0" width="158" height="45">
<path d="M158 0H0V45H158V0Z" fill="white"/>
</mask>
<g mask="url(#mask0_12_226)">
<path d="M59.123 0.0808105C57.3417 0.0808105 55.8988 1.52591 55.8988 3.30202V15.1373C55.8988 17.5189 55.0606 19.5453 53.384 21.2245C51.8203 22.7907 49.6923 23.703 47.4918 23.7353C45.0495 23.7756 42.97 22.9441 41.2531 21.2326C39.6007 19.5857 38.7221 17.3009 38.7221 14.9678V3.30202C38.7221 1.51784 37.2793 0.0808105 35.498 0.0808105C33.7166 0.0808105 32.2738 1.52591 32.2738 3.30202V15.1373C32.2738 19.3031 33.7408 22.8634 36.6748 25.802C39.6007 28.7326 43.1553 30.21 47.3226 30.21C50.5629 30.21 53.4324 29.3219 55.915 27.5539V30.0001C55.915 32.4059 54.9961 34.7552 53.2631 36.4263C52.1991 37.4516 51.0062 38.1459 49.6762 38.5092C48.3059 38.8806 47.3226 40.0674 47.3226 41.4882V41.8435C47.3226 43.8375 49.2006 45.2988 51.1271 44.8144C53.6984 44.1766 55.9794 42.8526 57.9704 40.8585C60.9043 37.9199 62.3713 34.3677 62.3713 30.2019V3.30202C62.3472 1.52591 60.9043 0.0808105 59.123 0.0808105Z" fill="black"/>
</g>
<mask id="mask1_12_226" style="mask-type:luminance" maskUnits="userSpaceOnUse" x="0" y="0" width="158" height="45">
<path d="M158 0H0V45H158V0Z" fill="white"/>
</mask>
<g mask="url(#mask1_12_226)">
<path d="M59.1312 1.59839C60.6546 1.59839 61.9362 2.65598 62.2828 4.08494C62.3392 3.8266 62.3876 3.57633 62.3876 3.30991C62.3876 1.50959 60.9286 0.0483398 59.1312 0.0483398C57.3337 0.0483398 55.8748 1.50959 55.8748 3.30991C55.8748 3.57633 55.9231 3.84274 55.9795 4.08494C56.3261 2.65598 57.5997 1.59839 59.1312 1.59839Z" fill="black"/>
</g>
<mask id="mask2_12_226" style="mask-type:luminance" maskUnits="userSpaceOnUse" x="0" y="0" width="158" height="45">
<path d="M158 0H0V45H158V0Z" fill="white"/>
</mask>
<g mask="url(#mask2_12_226)">
<path d="M86.9556 11.0038L72.2454 10.9957C72.197 10.9876 72.1729 10.9473 72.197 10.9069C72.463 10.4548 72.7774 10.0269 73.1562 9.60711C74.9456 7.61303 77.5975 6.53122 80.2655 6.71691C82.3612 6.86223 84.1667 7.68569 85.6821 9.2196C86.2141 9.7605 86.6574 10.3176 87.0121 10.915C87.0282 10.9634 87.004 11.0038 86.9556 11.0038ZM79.6126 0.234131C75.4534 0.234131 71.8988 1.70345 68.9648 4.63402C66.0308 7.56459 64.5638 11.1249 64.5558 15.2906C64.5558 19.4564 66.0228 23.0167 68.9487 25.9553C71.8746 28.894 75.4293 30.3633 79.5884 30.3633C83.7476 30.3714 87.3022 28.9021 90.2362 25.9715L90.2685 25.9311C90.2685 25.9311 92.5657 23.2831 90.1959 21.3052C87.9148 19.3918 85.7305 21.3455 85.7063 21.3536L85.6902 21.3698C84.3038 22.7503 82.4982 23.6868 80.5476 23.8644C77.7587 24.1146 75.4131 23.2912 73.519 21.3778C72.3986 20.2557 71.6489 18.9639 71.2943 17.5108C71.2862 17.4704 71.3185 17.4381 71.3426 17.4462L92.4931 17.4623C93.6538 17.4623 94.6372 16.542 94.6453 15.3794V15.3149C94.6453 11.1491 93.1863 7.58881 90.2524 4.65017C87.3184 1.71153 83.7718 0.242204 79.6126 0.234131Z" fill="black"/>
</g>
<mask id="mask3_12_226" style="mask-type:luminance" maskUnits="userSpaceOnUse" x="0" y="0" width="158" height="45">
<path d="M158 0H0V45H158V0Z" fill="white"/>
</mask>
<g mask="url(#mask3_12_226)">
<path d="M89.3092 22.3627C90.3893 23.4445 90.5425 25.0915 89.7848 26.3509C90.0105 26.2136 90.2201 26.0683 90.4054 25.8746C91.679 24.599 91.679 22.5403 90.4054 21.2648C89.1319 19.9892 87.0765 19.9892 85.803 21.2648C85.6176 21.4505 85.4564 21.6684 85.3274 21.8864C86.5848 21.1275 88.2291 21.289 89.3092 22.3627Z" fill="black"/>
</g>
<mask id="mask4_12_226" style="mask-type:luminance" maskUnits="userSpaceOnUse" x="0" y="0" width="158" height="45">
<path d="M158 0H0V45H158V0Z" fill="white"/>
</mask>
<g mask="url(#mask4_12_226)">
<path d="M22.3999 11.0038L7.68966 10.9957C7.64129 10.9876 7.61711 10.9473 7.64129 10.9069C7.90729 10.4548 8.22164 10.0269 8.60048 9.60711C10.3818 7.61303 13.0418 6.53122 15.7098 6.71691C17.8055 6.86223 19.611 7.68569 21.1263 9.2196C21.6583 9.7605 22.1017 10.3176 22.4563 10.915C22.4724 10.9634 22.4483 11.0038 22.3999 11.0038ZM15.0488 0.234131C10.8896 0.234131 7.335 1.70345 4.40101 4.63402C1.47509 7.57267 3.28556e-05 11.1249 3.28556e-05 15.2906C-0.00802755 19.4564 1.46703 23.0167 4.39295 25.9553C7.31888 28.894 10.8735 30.3633 15.0327 30.3633C19.1918 30.3714 22.7465 28.9021 25.6805 25.9715L25.7127 25.9311C25.7127 25.9311 28.0099 23.2831 25.6402 21.3052C23.3591 19.3918 21.1747 21.3455 21.1586 21.3536L21.1425 21.3698C19.7561 22.7503 17.9505 23.6868 15.9999 23.8644C13.211 24.1146 10.8655 23.2912 8.97126 21.3778C7.85086 20.2557 7.10125 18.9639 6.73853 17.5108C6.73047 17.4704 6.76271 17.4381 6.78689 17.4462L27.9374 17.4623C29.0981 17.4623 30.0815 16.542 30.0895 15.3794V15.3149C30.0895 11.1491 28.6306 7.58881 25.6966 4.65017C22.7626 1.71153 19.216 0.242204 15.0488 0.234131Z" fill="black"/>
</g>
<mask id="mask5_12_226" style="mask-type:luminance" maskUnits="userSpaceOnUse" x="0" y="0" width="158" height="45">
<path d="M158 0H0V45H158V0Z" fill="white"/>
</mask>
<g mask="url(#mask5_12_226)">
<path d="M24.7534 22.3627C25.8335 23.4445 25.9867 25.0915 25.229 26.3509C25.4547 26.2136 25.6643 26.0683 25.8497 25.8746C27.1232 24.599 27.1232 22.5403 25.8497 21.2648C24.5761 19.9892 22.5207 19.9892 21.2472 21.2648C21.0618 21.4505 20.9006 21.6684 20.7716 21.8864C22.029 21.1275 23.6734 21.289 24.7534 22.3627Z" fill="black"/>
</g>
<mask id="mask6_12_226" style="mask-type:luminance" maskUnits="userSpaceOnUse" x="0" y="0" width="158" height="45">
<path d="M158 0H0V45H158V0Z" fill="white"/>
</mask>
<g mask="url(#mask6_12_226)">
<path d="M126.645 28.9019C119.729 26.8756 115.989 22.0962 114.683 20.0537C114.047 19.3271 113.579 18.536 113.273 17.6721C113.071 20.6915 113.418 25.1075 115.941 29.6608C117.311 30.0483 118.762 30.2421 120.301 30.2421C122.623 30.2502 124.727 29.7981 126.645 28.9019Z" fill="black"/>
</g>
<mask id="mask7_12_226" style="mask-type:luminance" maskUnits="userSpaceOnUse" x="0" y="0" width="158" height="45">
<path d="M158 0H0V45H158V0Z" fill="white"/>
</mask>
<g mask="url(#mask7_12_226)">
<path d="M115.03 9.97835C115.683 9.3325 116.4 8.86425 117.166 8.50903C113.942 8.56555 109.75 9.34057 105.551 12.1339C105.366 13.1188 105.261 14.1441 105.261 15.2179C105.261 18.0596 105.93 20.5946 107.252 22.839C108.549 18.326 111.024 15.1452 113.168 13.1108C113.498 11.9563 114.103 10.8987 115.03 9.97835Z" fill="black"/>
</g>
<mask id="mask8_12_226" style="mask-type:luminance" maskUnits="userSpaceOnUse" x="0" y="0" width="158" height="45">
<path d="M158 0H0V45H158V0Z" fill="white"/>
</mask>
<g mask="url(#mask8_12_226)">
<path d="M113.273 17.6803C113.007 16.9133 112.838 16.0979 112.838 15.2179C112.838 14.4671 112.967 13.7809 113.16 13.1189C111.016 15.1533 108.549 18.3342 107.244 22.8471C107.888 23.937 108.654 24.9623 109.605 25.9068C111.443 27.7475 113.555 28.9989 115.925 29.6689C113.418 25.1157 113.071 20.6996 113.273 17.6803Z" fill="black"/>
</g>
<mask id="mask9_12_226" style="mask-type:luminance" maskUnits="userSpaceOnUse" x="0" y="0" width="158" height="45">
<path d="M158 0H0V45H158V0Z" fill="white"/>
</mask>
<g mask="url(#mask9_12_226)">
<path d="M125.525 10.0107C126.347 10.8261 126.911 11.7384 127.266 12.7314C127.669 13.345 127.669 13.345 127.266 12.7314C127.548 13.5064 127.717 14.3299 127.717 15.218C127.717 17.2685 126.992 19.0285 125.557 20.4897C124.114 21.9429 122.365 22.6776 120.301 22.6776C118.246 22.6776 116.481 21.951 115.03 20.4897C114.893 20.3525 114.796 20.2072 114.675 20.0699C115.989 22.0963 119.729 26.8837 126.637 28.9182C128.201 28.1997 129.635 27.1986 130.933 25.8988C133.835 22.9844 135.286 19.4241 135.286 15.2341C135.286 11.0441 133.835 7.49997 130.933 4.6017C128.031 1.70342 124.485 0.250244 120.293 0.250244C116.868 0.250244 113.877 1.23517 111.306 3.17274C117.134 3.7863 121.253 6.35358 123.912 8.81591C124.485 9.13076 125.025 9.51827 125.525 10.0107Z" fill="black"/>
</g>
<mask id="mask10_12_226" style="mask-type:luminance" maskUnits="userSpaceOnUse" x="0" y="0" width="158" height="45">
<path d="M158 0H0V45H158V0Z" fill="white"/>
</mask>
<g mask="url(#mask10_12_226)">
<path d="M120.301 7.82305C121.631 7.82305 122.824 8.17019 123.912 8.7999C121.253 6.33758 117.134 3.7703 111.306 3.15674C110.734 3.59269 110.17 4.05286 109.638 4.58569C107.461 6.74124 106.107 9.252 105.551 12.1261C109.75 9.34081 113.942 8.56578 117.166 8.50119C118.125 8.07332 119.165 7.82305 120.301 7.82305Z" fill="black"/>
</g>
<mask id="mask11_12_226" style="mask-type:luminance" maskUnits="userSpaceOnUse" x="0" y="0" width="158" height="45">
<path d="M158 0H0V45H158V0Z" fill="white"/>
</mask>
<g mask="url(#mask11_12_226)">
<path d="M153.454 4.48861C150.496 1.52575 146.925 0.0402832 142.725 0.0402832C139.106 0.0402832 135.955 1.14631 133.255 3.35029C133.924 4.06074 135.648 6.11133 136.575 9.1307C136.745 8.96117 136.922 8.77548 137.115 8.61402C138.445 7.4434 140.138 6.72489 141.903 6.58765C145.023 6.34545 147.586 7.45955 149.593 9.9138C150.802 11.3993 151.39 13.2884 151.39 15.2017V26.7222C151.39 28.7647 153.051 30.4278 155.09 30.4278C156.638 30.4278 157.895 29.1684 157.895 27.6183V15.234C157.887 11.0279 156.412 7.4434 153.454 4.48861Z" fill="black"/>
</g>
</g>
<defs>
<clipPath id="clip0_12_226">
<rect width="158" height="45" fill="white"/>
</clipPath>
</defs>
</svg>
